<svg width="730" height="747" viewBox="0 0 730 747" fill="none" xmlns="http://www.w3.org/2000/svg">
<g clip-path="url(#clip0_2215_555)">
<path d="M714.592 262.916C696.02 226.365 550.897 262.791 390.45 344.275C230.002 425.76 114.989 521.446 133.56 557.997C152.131 594.548 297.254 558.122 457.702 476.638C618.149 395.153 733.163 299.467 714.592 262.916Z" stroke="#4919A1" stroke-miterlimit="10"/>
<path d="M613.79 204.559C595.219 168.008 450.096 204.434 289.648 285.918C129.201 367.403 14.1872 463.09 32.7583 499.641C51.3294 536.191 196.453 499.766 356.9 418.281C517.347 336.796 632.361 241.11 613.79 204.559Z" stroke="#4919A1" stroke-miterlimit="10"/>
<path d="M90.4897 371.9L138.494 414.988" stroke="#4919A1" stroke-width="0.75" stroke-linecap="round" stroke-linejoin="round"/>
<path d="M136.029 369.444L92.9492 417.439" stroke="#4919A1" stroke-width="0.75" stroke-linecap="round" stroke-linejoin="round"/>
<path d="M112.746 361.237L116.232 425.646" stroke="#4919A1" stroke-width="0.75" stroke-linecap="round" stroke-linejoin="round"/>
<path d="M146.694 391.708L82.2837 395.175" stroke="#4919A1" stroke-width="0.75" stroke-linecap="round" stroke-linejoin="round"/>
<path d="M84.0698 382.723L144.904 404.166" stroke="#4919A1" stroke-width="0.75" stroke-linecap="round" stroke-linejoin="round"/>
<path d="M125.205 363.03L103.778 423.857" stroke="#4919A1" stroke-width="0.75" stroke-linecap="round" stroke-linejoin="round"/>
<path d="M100.554 364.358L128.42 422.53" stroke="#4919A1" stroke-width="0.75" stroke-linecap="round" stroke-linejoin="round"/>
<path d="M143.575 379.519L85.4082 407.368" stroke="#4919A1" stroke-width="0.75" stroke-linecap="round" stroke-linejoin="round"/>
</g>
<defs>
<clipPath id="clip0_2215_555">
<rect width="634.692" height="411.091" fill="white" transform="translate(0 472.33) rotate(-48.0894)"/>
</clipPath>
</defs>
</svg>
