<svg width="730" height="497" viewBox="0 0 730 497" fill="none" xmlns="http://www.w3.org/2000/svg">
<g clip-path="url(#clip0_2328_534)">
<path d="M726.947 434.661C740.928 391.325 598.073 306.42 407.872 245.02C217.671 183.62 52.1489 168.975 38.1681 212.311C24.1874 255.647 167.042 340.552 357.243 401.952C547.444 463.352 712.966 477.996 726.947 434.661Z" stroke="white" stroke-miterlimit="10"/>
<path d="M693.209 309.774C707.19 266.438 564.336 181.533 374.135 120.133C183.934 58.7325 18.4115 44.0883 4.43081 87.4239C-9.54992 130.759 133.305 215.665 323.506 277.065C513.707 338.465 679.229 353.109 693.209 309.774Z" stroke="white" stroke-miterlimit="10"/>
<path d="M149.913 31.9722L154.005 103.498" stroke="white" stroke-width="0.75" stroke-linecap="round" stroke-linejoin="round"/>
<path d="M187.716 65.6856L116.202 69.7769" stroke="white" stroke-width="0.75" stroke-linecap="round" stroke-linejoin="round"/>
<path d="M175.797 40.9935L128.122 94.469" stroke="white" stroke-width="0.75" stroke-linecap="round" stroke-linejoin="round"/>
<path d="M178.69 91.576L125.228 43.8865" stroke="white" stroke-width="0.75" stroke-linecap="round" stroke-linejoin="round"/>
<path d="M136.383 35.4734L167.527 99.9896" stroke="white" stroke-width="0.75" stroke-linecap="round" stroke-linejoin="round"/>
<path d="M184.208 52.1598L119.71 83.3105" stroke="white" stroke-width="0.75" stroke-linecap="round" stroke-linejoin="round"/>
<path d="M163.747 33.9079L140.164 101.555" stroke="white" stroke-width="0.75" stroke-linecap="round" stroke-linejoin="round"/>
<path d="M185.774 79.5311L118.144 55.9392" stroke="white" stroke-width="0.75" stroke-linecap="round" stroke-linejoin="round"/>
</g>
<defs>
<clipPath id="clip0_2328_534">
<rect width="704.924" height="456.581" fill="white" transform="translate(0 40.2622) rotate(-3.27425)"/>
</clipPath>
</defs>
</svg>
