<svg width="50" height="50" viewBox="0 0 50 50" fill="none" xmlns="http://www.w3.org/2000/svg">
<g clip-path="url(#clip0_2552_2215)">
<path fill-rule="evenodd" clip-rule="evenodd" d="M36.7194 29.8893C36.117 29.5514 33.1512 27.9373 32.5951 27.7121C32.0391 27.4869 31.6313 27.3649 31.2049 27.9748C30.7786 28.5755 29.546 29.9362 29.1752 30.3397C28.8045 30.7432 28.4431 30.7808 27.8406 30.4429C27.2382 30.1051 25.2827 29.3731 23.0213 27.1678C21.2604 25.4505 20.1019 23.3671 19.7682 22.729C19.4346 22.0908 19.7682 21.7718 20.0833 21.4715C20.3706 21.1993 20.7228 20.7676 21.0472 20.4204C21.3623 20.0732 21.4735 19.8104 21.696 19.4069C21.9184 19.0034 21.8257 18.6374 21.6867 18.3183C21.5477 17.9993 20.4262 14.893 19.9628 13.6355C19.4994 12.3686 18.9804 12.5563 18.619 12.5469C18.2575 12.5375 17.8497 12.4625 17.4419 12.4531C17.0341 12.4343 16.3576 12.5657 15.7737 13.1663C15.1898 13.7669 13.5401 15.2121 13.4289 18.2714C13.3177 21.3307 15.403 24.3712 15.6995 24.7935C15.9869 25.2252 19.6941 31.8506 25.8388 34.5815C31.9927 37.3123 32.0205 36.4771 33.1512 36.4208C34.2819 36.3645 36.8399 35.0507 37.4052 33.6243C37.9706 32.1884 38.0169 30.9497 37.8686 30.6869C37.7204 30.4242 37.3218 30.2459 36.7194 29.9174V29.8893ZM25.4402 44.6321C21.3716 44.6321 17.5902 43.3934 14.4206 41.2819L6.72811 43.7782L9.23047 36.2519C6.83006 32.911 5.42132 28.8007 5.42132 24.3619C5.42132 13.1757 14.402 4.08221 25.4402 4.08221C36.4784 4.08221 45.4684 13.1757 45.4684 24.3619C45.4684 35.548 36.4877 44.6415 25.4402 44.6415V44.6321ZM25.4402 0C12.1592 0 1.38973 10.9047 1.38973 24.3525C1.38973 28.9508 2.65018 33.2583 4.8467 36.9276L0.5 50L13.8181 45.6832C17.2658 47.6164 21.2233 48.7143 25.4402 48.7143C38.7306 48.7143 49.5 37.8097 49.5 24.3525C49.5 10.8953 38.7306 0 25.4402 0Z" fill="white"/>
</g>
<defs>
<clipPath id="clip0_2552_2215">
<rect width="49" height="50" fill="white" transform="translate(0.5)"/>
</clipPath>
</defs>
</svg>
