<svg width="840" height="767" viewBox="0 0 840 767" fill="none" xmlns="http://www.w3.org/2000/svg">
<g clip-path="url(#clip0_2136_506)">
<path d="M166.111 197.609L172.839 269.094" stroke="white" stroke-width="0.75" stroke-linecap="round" stroke-linejoin="round"/>
<path d="M205.211 229.984L133.73 236.712" stroke="white" stroke-width="0.75" stroke-linecap="round" stroke-linejoin="round"/>
<path d="M192.364 205.7L146.578 261.004" stroke="white" stroke-width="0.75" stroke-linecap="round" stroke-linejoin="round"/>
<path d="M197.122 256.246L141.821 210.457" stroke="white" stroke-width="0.75" stroke-linecap="round" stroke-linejoin="round"/>
<path d="M152.686 201.613L186.256 265.083" stroke="white" stroke-width="0.75" stroke-linecap="round" stroke-linejoin="round"/>
<path d="M201.208 216.565L137.743 250.137" stroke="white" stroke-width="0.75" stroke-linecap="round" stroke-linejoin="round"/>
<path d="M180.04 199.038L158.902 267.658" stroke="white" stroke-width="0.75" stroke-linecap="round" stroke-linejoin="round"/>
<path d="M203.783 243.921L135.168 222.781" stroke="white" stroke-width="0.75" stroke-linecap="round" stroke-linejoin="round"/>
<path d="M530.951 512.537C631.437 391.161 614.508 211.3 493.139 110.806C371.77 10.312 191.921 27.2397 91.4347 148.615C-9.05155 269.991 7.8773 449.852 129.246 550.346C250.615 650.84 430.465 633.913 530.951 512.537Z" stroke="white" stroke-miterlimit="10"/>
<path d="M633.439 568.327C733.925 446.952 716.996 267.091 595.627 166.597C474.258 66.1024 294.409 83.0302 193.922 204.406C93.4362 325.781 110.365 505.642 231.734 606.137C353.103 706.631 532.952 689.703 633.439 568.327Z" stroke="white" stroke-miterlimit="10"/>
<path d="M555.431 720.321C712.307 705.555 827.509 566.405 812.742 409.519C797.976 252.633 658.833 137.422 501.958 152.187C345.082 166.953 229.88 306.104 244.647 462.989C259.413 619.875 398.556 735.086 555.431 720.321Z" stroke="white" stroke-miterlimit="10"/>
</g>
<defs>
<clipPath id="clip0_2136_506">
<rect width="778" height="697" fill="white" transform="translate(0 72.9045) rotate(-5.37695)"/>
</clipPath>
</defs>
</svg>
