<svg width="31" height="31" viewBox="0 0 31 31" fill="none" xmlns="http://www.w3.org/2000/svg">
<g clip-path="url(#clip0_2383_37)">
<path d="M24.0632 31H6.93634C3.11163 31 0 27.8879 0 24.0627V6.93634C0 3.11163 3.11163 0 6.93634 0H24.0632C27.8884 0 31 3.11163 31 6.93634V24.0627C31 27.8879 27.8884 31 24.0632 31ZM6.93634 1.75448C4.07901 1.75448 1.75448 4.07901 1.75448 6.93583V24.0622C1.75448 26.92 4.07901 29.2445 6.93634 29.2445H24.0632C26.9205 29.2445 29.2455 26.92 29.2455 24.0622V6.93634C29.2455 4.07901 26.921 1.75498 24.0632 1.75498H6.93634V1.75448Z" fill="white"/>
<path d="M10.9519 8.91497C10.9564 10.0944 10.1346 11.0446 8.79406 11.0446C7.53913 11.0446 6.71578 10.0944 6.71981 8.91497C6.71527 7.71141 7.56683 6.77979 8.83888 6.77979C10.1109 6.77979 10.9383 7.70084 10.9519 8.91497ZM7.05821 24.2203V12.4975H10.6165V24.2203H7.05821Z" fill="white"/>
<path d="M12.9093 16.0064C12.9093 14.6558 12.863 13.5424 12.8061 12.5297H16.38V14.1563C16.936 13.2493 17.8495 12.2114 19.9368 12.2114C22.4265 12.2114 24.2807 13.5781 24.2807 17.2759V24.2198H20.5431V18.8028C20.5431 17.1304 20.4051 15.4263 18.7151 15.4263C17.4506 15.4263 16.9561 16.2043 16.6237 17.1088C16.5261 17.3505 16.384 18.684 16.384 19.0204V24.2203H12.9098V16.0069L12.9093 16.0064Z" fill="white"/>
</g>
<defs>
<clipPath id="clip0_2383_37">
<rect width="31" height="31" fill="white"/>
</clipPath>
</defs>
</svg>
