<svg width="33" height="30" viewBox="0 0 33 30" fill="none" xmlns="http://www.w3.org/2000/svg">
<g id="Capa_1" clip-path="url(#clip0_729_134)">
<path id="Vector" d="M16.4872 14.8441C16.457 14.5653 16.3318 14.3036 16.131 14.1036L2.19818 0.372811C1.6951 -0.122968 0.881114 -0.122968 0.378039 0.372811C-0.125036 0.868591 -0.125036 1.67078 0.378039 2.16656L13.4019 15.0015L0.378039 27.8343C-0.125036 28.3301 -0.125036 29.1323 0.378039 29.6281C0.881114 30.1239 1.6951 30.1239 2.19818 29.6281L16.131 15.8973C16.4095 15.6207 16.5412 15.2313 16.4872 14.8441Z" fill="#6C46EB"/>
<path id="Vector_2" d="M32.987 14.8436C32.9568 14.5648 32.8315 14.3031 32.6307 14.1031L18.6979 0.372323C18.1949 -0.123457 17.3809 -0.123457 16.8778 0.372323C16.3747 0.868103 16.3747 1.67029 16.8778 2.16607L29.9016 15.001L16.8778 27.836C16.3747 28.3318 16.3747 29.1339 16.8778 29.6297C17.3809 30.1255 18.1949 30.1255 18.6979 29.6297L32.6307 15.899C32.9093 15.6223 33.041 15.2329 32.987 14.8457V14.8436Z" fill="#6C46EB"/>
</g>
<defs>
<clipPath id="clip0_729_134">
<rect width="33" height="30" fill="white"/>
</clipPath>
</defs>
</svg>
