<svg width="30" height="33" viewBox="0 0 30 33" fill="none" xmlns="http://www.w3.org/2000/svg">
<g clip-path="url(#clip0_2098_170)">
<path d="M14.8439 16.5125C14.5652 16.5427 14.3035 16.668 14.1034 16.8688L0.372689 30.8016C-0.123091 31.3047 -0.12309 32.1186 0.372689 32.6217C0.868469 33.1248 1.67065 33.1248 2.16643 32.6217L15.0014 19.5979L27.8342 32.6217C28.33 33.1248 29.1322 33.1248 29.628 32.6217C30.1237 32.1186 30.1237 31.3047 29.628 30.8016L15.8972 16.8688C15.6206 16.5902 15.2312 16.4585 14.8439 16.5125Z" fill="white"/>
<path d="M14.844 0.0125173C14.5653 0.042745 14.3036 0.167974 14.1036 0.368772L0.372811 14.3016C-0.122968 14.8047 -0.122968 15.6186 0.372811 16.1217C0.868591 16.6248 1.67078 16.6248 2.16656 16.1217L15.0015 3.0979L27.8365 16.1217C28.3322 16.6248 29.1344 16.6248 29.6302 16.1217C30.126 15.6186 30.126 14.8047 29.6302 14.3016L15.8994 0.368772C15.6228 0.0902455 15.2334 -0.0414607 14.8462 0.0125173L14.844 0.0125173Z" fill="white"/>
</g>
<defs>
<clipPath id="clip0_2098_170">
<rect width="33" height="30" fill="white" transform="translate(0 33) rotate(-90)"/>
</clipPath>
</defs>
</svg>
