<svg width="35" height="30" viewBox="0 0 35 30" fill="none" xmlns="http://www.w3.org/2000/svg">
<g clip-path="url(#clip0_729_75)">
<path d="M34.9877 14.8447C34.96 14.5643 34.846 14.3038 34.6643 14.1035L21.999 0.370618C21.54 -0.123539 20.8008 -0.123539 20.3419 0.370618C19.886 0.868114 19.886 1.66945 20.3419 2.16694L32.1817 15.0017L20.3419 27.8331C19.886 28.3272 19.886 29.1319 20.3419 29.626C20.7977 30.1202 21.54 30.1202 21.9959 29.626L34.6643 15.8932C34.9168 15.616 35.037 15.2254 34.9877 14.8414V14.8447Z" fill="#14387F"/>
</g>
<g clip-path="url(#clip1_729_75)">
<path d="M14.9877 14.8447C14.96 14.5643 14.846 14.3038 14.6643 14.1035L1.99897 0.370618C1.54004 -0.123539 0.800821 -0.123539 0.341889 0.370618C-0.113963 0.868114 -0.113963 1.66945 0.341889 2.16694L12.1817 15.0017L0.341889 27.8331C-0.113963 28.3272 -0.113963 29.1319 0.341889 29.626C0.797741 30.1202 1.54004 30.1202 1.99589 29.626L14.6643 15.8932C14.9168 15.616 15.037 15.2254 14.9877 14.8414V14.8447Z" fill="#14387F"/>
<g clip-path="url(#clip2_729_75)">
<path d="M14.9877 14.8447C14.96 14.5643 14.846 14.3038 14.6643 14.1035L1.99897 0.370618C1.54004 -0.123539 0.800821 -0.123539 0.341889 0.370618C-0.113963 0.868114 -0.113963 1.66945 0.341889 2.16694L12.1817 15.0017L0.341889 27.8331C-0.113963 28.3272 -0.113963 29.1319 0.341889 29.626C0.797741 30.1202 1.54004 30.1202 1.99589 29.626L14.6643 15.8932C14.9168 15.616 15.037 15.2254 14.9877 14.8414V14.8447Z" fill="#14387F"/>
</g>
<g clip-path="url(#clip3_729_75)">
<path d="M14.9877 14.8447C14.96 14.5643 14.846 14.3038 14.6643 14.1035L1.99897 0.370618C1.54004 -0.123539 0.800821 -0.123539 0.341889 0.370618C-0.113963 0.868114 -0.113963 1.66945 0.341889 2.16694L12.1817 15.0017L0.341889 27.8331C-0.113963 28.3272 -0.113963 29.1319 0.341889 29.626C0.797741 30.1202 1.54004 30.1202 1.99589 29.626L14.6643 15.8932C14.9168 15.616 15.037 15.2254 14.9877 14.8414V14.8447Z" fill="#14387F"/>
</g>
</g>
<defs>
<clipPath id="clip0_729_75">
<rect width="15" height="30" fill="#14387F" transform="translate(20)"/>
</clipPath>
<clipPath id="clip1_729_75">
<rect width="15" height="30" fill="#14387F"/>
</clipPath>
<clipPath id="clip2_729_75">
<rect width="15" height="30" fill="#14387F"/>
</clipPath>
<clipPath id="clip3_729_75">
<rect width="15" height="30" fill="#14387F"/>
</clipPath>
</defs>
</svg>
