<svg width="34" height="49" viewBox="0 0 34 49" fill="none" xmlns="http://www.w3.org/2000/svg">
<g clip-path="url(#clip0_2048_1917)">
<path d="M32.0926 9.1794L32.0799 9.18259C29.9167 4.97943 26.3311 2.13662 22.1474 0.778401L22.1083 0.795392L22.1189 0.782649C22.1189 0.782649 19.8828 0 16.9461 0C10.8708 0 6.47684 3.10192 3.96494 6.10509L3.97128 6.15394C1.7447 8.7302 0 12.6562 0 17.1567C0 21.9237 1.65699 25.2306 1.65699 25.2306C3.48834 29.4189 6.98092 33.0805 9.36495 36.3109C10.8708 38.2033 12.4042 40.5756 13.2073 42.0124C14.1848 43.8815 14.5895 45.143 15.3176 47.3869C15.7425 48.6251 16.1483 49 16.9979 49C17.9278 49 18.3526 48.3692 18.6781 47.3869C19.3576 45.2662 19.8818 43.6531 20.7124 42.1123C22.3451 39.1611 24.4036 36.5339 26.4146 34.0107C26.9673 33.3035 30.4831 29.1396 32.0651 25.8338C32.0651 25.8338 34 22.2243 34 17.1769C34 12.4576 32.0926 9.1794 32.0926 9.1794ZM12.0037 12.9164L11.9772 12.8941L12.1263 12.7157C12.625 12.1783 14.3391 10.5684 16.9979 10.5684C20.3636 10.5684 23.4779 13.3709 23.4779 17.0802C23.4779 18.7411 22.809 20.0717 22.3694 20.7662L22.1982 20.9892L21.972 21.2685L21.673 21.6296C21.0241 22.288 19.4157 23.6165 16.9979 23.6165C13.406 23.6165 10.4936 20.7418 10.4936 17.1047C10.4936 15.3567 11.2185 13.9942 11.6539 13.3316L12.0037 12.9153V12.9164Z" fill="#14387F"/>
</g>
<defs>
<clipPath id="clip0_2048_1917">
<rect width="34" height="49" fill="white"/>
</clipPath>
</defs>
</svg>
