<svg width="13" height="17" viewBox="0 0 13 17" fill="none" xmlns="http://www.w3.org/2000/svg">
<g clip-path="url(#clip0_2048_1884)">
<path d="M1.03698 9.83356L1.06951 9.87947C1.10934 9.93793 1.15063 9.99459 1.19229 10.0566L5.89727 16.6909C6.12933 17.0177 6.58722 17.0984 6.92013 16.8706C6.99139 16.8218 7.05351 16.7609 7.10321 16.6909L11.7976 10.062C11.8429 9.99997 11.886 9.93972 11.9295 9.88484L11.9584 9.84217C13.9069 6.88331 13.0423 2.93457 10.0274 1.02225C7.01295 -0.89007 2.98914 -0.0415047 1.04064 2.91736C-0.347286 5.02478 -0.347286 7.7351 1.04064 9.84252L1.03698 9.83356ZM6.50061 3.72575C7.99634 3.72575 9.20885 4.91575 9.20885 6.38371C9.20885 7.85166 7.99634 9.04166 6.50061 9.04166C5.00488 9.04166 3.79237 7.85166 3.79237 6.38371C3.79237 4.91575 5.00488 3.72575 6.50061 3.72575Z" fill="#14387F"/>
</g>
<defs>
<clipPath id="clip0_2048_1884">
<rect width="13" height="17" fill="white"/>
</clipPath>
</defs>
</svg>
