<svg width="142" height="142" viewBox="0 0 142 142" fill="none" xmlns="http://www.w3.org/2000/svg">
<g id="Capa_1" clip-path="url(#clip0_805_4)">
<path id="Vector" d="M71 3.65979C108.132 3.65979 138.34 33.8677 138.34 71C138.34 108.132 108.132 138.34 71 138.34C33.8677 138.34 3.65979 108.132 3.65979 71C3.65979 33.8677 33.8677 3.65979 71 3.65979ZM71 0C31.789 0 0 31.789 0 71C0 110.211 31.789 142 71 142C110.211 142 142 110.211 142 71C142 31.789 110.211 0 71 0Z" fill="white"/>
<path id="Vector_2" d="M81.2182 55.0068L99.5245 65.7373C103.543 68.0942 103.506 73.9132 99.4586 76.2116L81.0133 86.7006L62.5679 97.1895C58.5202 99.4879 53.4989 96.5527 53.5282 91.8902L53.6673 70.6707L53.8064 49.4512C53.8356 44.7959 58.8935 41.9193 62.9119 44.2689L81.2182 54.9994V55.0068Z" fill="white"/>
</g>
<defs>
<clipPath id="clip0_805_4">
<rect width="142" height="142" fill="white"/>
</clipPath>
</defs>
</svg>
