<svg width="46" height="46" viewBox="0 0 46 46" fill="none" xmlns="http://www.w3.org/2000/svg">
<g clip-path="url(#clip0_2048_1910)">
<path d="M25.3283 39.073H20.6253C20.106 36.4613 17.7629 34.4521 15.0014 34.4521C12.9589 34.4521 11.1855 35.5067 10.147 37.0638V37.1142C8.43983 36.2605 6.86621 35.0714 5.527 33.6824C3.90392 32.0591 2.99991 30.585 2.63098 29.6314C3.68534 29.3969 4.62298 28.8281 5.39248 28.008C6.3964 26.9534 6.91566 25.5299 6.91566 24.1073V20.6755C6.91566 16.6245 8.25487 12.6229 10.7652 9.4424C14.3298 4.87198 19.6194 2.29395 25.3273 2.29395C30.2312 2.29395 34.8512 4.20224 38.3327 7.66765C41.8143 11.1499 43.7054 15.7708 43.7054 20.6755C43.7054 25.5803 41.7974 30.2012 38.3327 33.6834C34.8848 37.132 30.2154 39.074 25.3273 39.074L25.3283 39.073Z" fill="white"/>
<path d="M45.999 20.6579C45.999 15.1338 43.8567 9.94413 39.9567 6.04344C36.0736 2.19321 30.8186 0.0168176 25.3451 0C19.018 0 13.1102 2.86294 9.05895 7.95174C6.14612 11.618 4.62393 16.1379 4.62393 20.8093V24.1243C4.62393 25.8486 3.43605 27.4562 1.05929 27.6065C0.490574 27.657 0.00493726 28.0418 0.00493726 28.6106C-0.0959486 30.1846 1.57856 33.0465 3.85443 35.3238C5.42805 36.9472 7.28553 38.2372 9.27754 39.2245C8.97587 40.8983 9.42788 42.6226 10.5327 43.9285C11.6207 45.2343 13.2437 45.9871 14.9519 45.9871C17.7638 45.9871 20.0397 44.0284 20.5758 41.4167H25.3797C25.9989 44.6645 29.3795 46.8913 32.9956 45.6518C36.1419 44.5972 37.5147 41.0309 36.3763 38.1185C37.6146 37.3152 38.8035 36.3606 39.8915 35.306C43.825 31.439 46.0178 26.1652 46.001 20.6579H45.999Z" fill="#14387F"/>
<path d="M25.3283 39.073H20.6253C20.106 36.4613 17.7629 34.4521 15.0014 34.4521C12.9589 34.4521 11.1855 35.5067 10.147 37.0638V37.1142C8.43983 36.2605 6.86621 35.0714 5.527 33.6824C3.90392 32.0591 2.99991 30.585 2.63098 29.6314C3.68534 29.3969 4.62298 28.8281 5.39248 28.008C6.3964 26.9534 6.91566 25.5299 6.91566 24.1073V20.6755C6.91566 16.6245 8.25487 12.6229 10.7652 9.4424C14.3298 4.87198 19.6194 2.29395 25.3273 2.29395C30.2312 2.29395 34.8512 4.20224 38.3327 7.66765C41.8143 11.1499 43.7054 15.7708 43.7054 20.6755C43.7054 25.5803 41.7974 30.2012 38.3327 33.6834C34.8848 37.132 30.2154 39.074 25.3273 39.074L25.3283 39.073Z" fill="white"/>
<path d="M36.8105 16.0885C36.8105 17.3439 35.7898 18.3648 34.5346 18.3648C33.2795 18.3648 32.2419 17.3439 32.2419 16.0885C32.2419 14.8332 33.2627 13.7954 34.5346 13.7954C35.8066 13.7954 36.8105 14.8163 36.8105 16.0885Z" fill="#14387F"/>
<path d="M23.002 16.0885C23.002 17.3439 21.9813 18.3648 20.7262 18.3648C19.471 18.3648 18.4335 17.3439 18.4335 16.0885C18.4335 14.8332 19.4542 13.7954 20.7262 13.7954C21.9981 13.7954 23.002 14.8163 23.002 16.0885Z" fill="#14387F"/>
<path d="M21.4284 23.6048C21.2444 23.22 20.8092 22.9351 20.374 22.9351C19.5373 22.9351 18.9844 23.7888 19.3197 24.5584C20.7924 27.6558 23.9396 29.8491 27.6546 29.8491C31.3696 29.8491 34.5168 27.7063 35.9896 24.5584C36.3239 23.8046 35.8056 22.9351 34.9352 22.9351H34.8848C34.4496 22.9351 34.0816 23.1695 33.8809 23.6048C32.7929 25.9316 30.3993 27.5559 27.6378 27.5559C24.8763 27.5559 22.5332 25.9325 21.4284 23.6048Z" fill="#14387F"/>
</g>
<defs>
<clipPath id="clip0_2048_1910">
<rect width="46" height="46" fill="white"/>
</clipPath>
</defs>
</svg>
